<svg xmlns="http://www.w3.org/2000/svg" viewBox="0 0 32 32" aria-hidden="true" role="presentation" focusable="false" style="display: block; height: 24px; width: 24px; fill: currentcolor;"><path d="m2 10 3 .02c4.25.24 7.93 2.22 11 5.89l.57.7c1.7 2.01 2.9 2.37 6.78 2.39H30v2h-1.65l-.84 5.02a4.76 4.76 0 0 1-4.48 3.97L11.1 30a4.76 4.76 0 0 1-4.63-3.64L3.67 12H2v-2zm22 15c-.5 0-.98.17-1.33.5a3.98 3.98 0 0 1-2.67 1 3.98 3.98 0 0 1-2.67-1A1.98 1.98 0 0 0 16 25c-.5 0-.98.17-1.33.5a3.98 3.98 0 0 1-2.67 1 3.98 3.98 0 0 1-2.67-1A1.94 1.94 0 0 0 8.24 25l.15.75A2.77 2.77 0 0 0 10.93 28l11.88.01a2.77 2.77 0 0 0 2.7-2.14l.03-.19a3.78 3.78 0 0 1-.21-.18A1.98 1.98 0 0 0 24 25zM5.73 12.1 7.85 23H8a4 4 0 0 1 2.5.86l.17.15c.35.31.83.49 1.33.49.5 0 .98-.17 1.33-.5A3.97 3.97 0 0 1 16 23c.99 0 1.95.35 2.67 1 .35.33.83.5 1.33.5.5 0 .98-.17 1.33-.5A3.98 3.98 0 0 1 24 23a4.05 4.05 0 0 1 1.9.47l.42-2.47-3.68-.01c-3.9-.08-5.54-.67-7.57-3.06l-.62-.75c-2.36-2.83-5.07-4.48-8.15-5l-.57-.09zM25 8a4 4 0 1 1 0 8 4 4 0 0 1 0-8zm0 2a2 2 0 1 0 0 4 2 2 0 0 0 0-4zm-9-8a3 3 0 1 1 0 6 3 3 0 0 1 0-6zm0 2a1 1 0 1 0 0 2 1 1 0 0 0 0-2z"></path></svg>