<svg xmlns="http://www.w3.org/2000/svg" viewBox="0 0 32 32" aria-hidden="true" role="presentation" focusable="false" style="display: block; height: 24px; width: 24px; fill: currentcolor;"><path d="M13 2h2c0 2.06-.48 3.34-1.77 5.42l-.75 1.19C11.6 10 11.2 10.9 11.06 12H9.04c.1-1.07.38-1.97.9-3H6a10 10 0 0 0 20 .28V9h-3.77a7.44 7.44 0 0 0-1.17 3h-2.02c.15-1.61.71-2.84 1.91-4.73l.57-.88c1.11-1.79 1.47-2.78 1.47-4.4h2c0 1.93-.4 3.17-1.5 5L28 7v2c0 .68-.06 1.35-.17 2H30v2h-2.68a12.04 12.04 0 0 1-5.9 6.7l4.5 9.89-1.83.82-2-4.41H17v4h-2v-4H9.92L7.9 30.41l-1.82-.82 4.49-9.88A12.04 12.04 0 0 1 4.68 13H2v-2h2.17A12.06 12.06 0 0 1 4 9.3V7h7.13l.39-.6c1.11-1.8 1.47-2.8 1.47-4.4zm-.57 18.46L10.83 24H15v-3.04a11.95 11.95 0 0 1-2.57-.5zm4.57.5V24h4.17l-1.6-3.54c-.69.21-1.4.37-2.13.45zM18 2h2c0 2.06-.48 3.35-1.77 5.42l-.75 1.19C16.6 10 16.2 10.9 16.06 12h-2.02c.15-1.62.71-2.84 1.91-4.74l.57-.88C17.63 4.6 17.99 3.61 17.99 2z"></path></svg>