<svg xmlns="http://www.w3.org/2000/svg" viewBox="0 0 32 32" aria-hidden="true" role="presentation" focusable="false" style="display: block; height: 24px; width: 24px; fill: currentcolor;"><path d="M15 18v3h2v-3h2v3h1a1 1 0 0 1 1 .88V24a5 5 0 0 1-4 4.9V31h-2v-2.1a5 5 0 0 1-4-4.67V22a1 1 0 0 1 .88-1H13v-3h2zm4 5h-6v1a3 3 0 0 0 2.65 2.98l.17.01.18.01a3 3 0 0 0 3-2.82V23zm3.5-22a7.5 7.5 0 0 1 .24 15H5.78a3 3 0 0 1-2.84-2.02A16.68 16.68 0 0 1 2 8.5c0-1.83.32-3.66.94-5.48A3 3 0 0 1 5.6 1.01L5.78 1H22.5zm-8.1 2H5.78a1 1 0 0 0-.94.67C4.28 5.3 4 6.9 4 8.5s.28 3.21.84 4.83a1 1 0 0 0 .81.66l.13.01h8.62A7.48 7.48 0 0 1 12 8.5 7.48 7.48 0 0 1 14.4 3zm8.1 0h-3a5.5 5.5 0 0 0-.22 11h3.22a5.5 5.5 0 0 0 .22-11h-.22zM10 6v5H8V6h2z"></path></svg>