<svg xmlns="http://www.w3.org/2000/svg" viewBox="0 0 32 32" aria-hidden="true" role="presentation" focusable="false" style="display: block; height: 24px; width: 24px; fill: currentcolor;"><path d="M5 17a1 1 0 0 1-.93-1.36 13.28 13.28 0 0 1 15.3-8.33 4 4 0 1 1 7.03 3.8l-.13.2.21.24a13.81 13.81 0 0 1 2.45 4.09 1 1 0 0 1-.82 1.35L28 17H17v9h13v2h-4v3h-2v-3H9v3H7v-3H2v-2h3.59l-4.3-4.3 1.42-1.4L8.4 26H15v-9zm11.5-8a11.2 11.2 0 0 0-9.77 5.69l-.17.31h19.88l-.17-.32a11.2 11.2 0 0 0-9.12-5.66L16.81 9zM31 8v2h-3V8zm-8-1a2 2 0 0 0-1.67.9 13.1 13.1 0 0 1 3.45 2.01A2 2 0 0 0 23 7zm4.95-4.36 1.41 1.41-2.12 2.12-1.41-1.41zm-9.9 0 2.12 2.12-1.41 1.41-2.12-2.12zM24 1v3h-2V1z"></path></svg>