<svg xmlns="http://www.w3.org/2000/svg" viewBox="0 0 32 32" aria-hidden="true" role="presentation" focusable="false" style="display: block; height: 24px; width: 24px; fill: currentcolor;"><path d="M20.93 2a3.93 3.93 0 0 1 3.93 3.93c0 .87-.29 1.7-.83 2.4l-.03.04V10a5 5 0 0 1 5 4.78V27a2 2 0 0 1-1.85 2H26v1h-2v-1H8v1H6v-1H5a2 2 0 0 1-2-1.85V17H1v-2h2a5 5 0 0 1 4.78-5H8V8.38a3.93 3.93 0 0 1 0-4.9l.14-.17.15-.16a3.93 3.93 0 0 1 2.56-1.14l.22-.01h9.86zM24 12H8a3 3 0 0 0-3 2.82V27h22V15a3 3 0 0 0-2.82-3H24zM8 23a1 1 0 1 1 0 2 1 1 0 0 1 0-2zM20.93 4h-9.86a1.93 1.93 0 0 0-1.36 3.3 1 1 0 0 1 .28.57L10 8v2h12V8a1 1 0 0 1 .12-.48l.07-.1.08-.1.12-.13a1.93 1.93 0 0 0-1.31-3.18L20.93 4z"></path></svg>