<svg xmlns="http://www.w3.org/2000/svg" viewBox="0 0 32 32" aria-hidden="true" role="presentation" focusable="false" style="display: block; height: 24px; width: 24px; fill: currentcolor;"><path d="M3 4v4h26V4h2v17a5 5 0 0 1-2.78 4.48L30.6 30h-2.26l-2.1-4H5.76l-2.11 4H1.4l2.38-4.52A5 5 0 0 1 1 21.22L1 21V4zm11.6 6.35a3 3 0 0 0-1.14 1.06l-.11.2L6.82 24h18.36l-6.53-12.4a3 3 0 0 0-4.05-1.25zM12 10H3v11a3 3 0 0 0 1.71 2.71l6.87-13.04A5 5 0 0 1 12 10zm17 0h-9c.11.15.22.3.31.47l.11.2 6.87 13.04a3 3 0 0 0 1.7-2.53L29 21z"></path></svg>