<svg xmlns="http://www.w3.org/2000/svg" viewBox="0 0 32 32" aria-hidden="true" role="presentation" focusable="false" style="display: block; height: 24px; width: 24px; fill: currentcolor;"><path d="M29 15v16h-2v-6h-6v6h-2v-6.15a2 2 0 0 1 1.84-1.84L21 23h6v-8zM5 15v8h6a2 2 0 0 1 2 1.85V31h-2v-6H5v6H3V15zM16 1a15 15 0 0 1 13.56 8.57 1 1 0 0 1-.8 1.42l-.1.01H17v8h8v2h-8v10h-2V21H7v-2h8v-8H3.35a1 1 0 0 1-.95-1.32l.04-.1A15 15 0 0 1 16 1zm0 2A13 13 0 0 0 5.4 8.47l-.2.28-.16.25h21.92l-.17-.25a13 13 0 0 0-10.1-5.73L16.34 3z"></path></svg>