<svg xmlns="http://www.w3.org/2000/svg" viewBox="0 0 32 32" aria-hidden="true" role="presentation" focusable="false" style="display: block; height: 24px; width: 24px; fill: currentcolor;"><path d="M4 25c.51 0 .94.5 1 1v2h22v-2c0-.51.5-1 1-1h3v2h-2v2c0 .51-.5 1-1 1H4c-.5 0-1-.5-1-1v-2H1v-2zm16-10a5.7 5.7 0 0 1 5.67 5.2l.18 2.6a3 3 0 0 1-2.79 3.2H9.14a3 3 0 0 1-3-3l.17-2.57A5.93 5.93 0 0 1 12 15zm-5 2h-2v3h-2v-2.83a3.83 3.83 0 0 0-2.67 3.19A21.5 21.5 0 0 0 8.14 23c0 .51.36.94.86 1h14c.51-.04.83-.45.86-.95a343.57 343.57 0 0 0-.17-2.48 3.83 3.83 0 0 0-2.69-3.4V20h-2v-3h-2v3h-2zm9-15h2c0 2.06-.48 3.34-1.77 5.42l-.75 1.19c-1.06 1.7-1.44 2.68-1.48 4.15V13h-2c0-2.16.52-3.47 1.95-5.73l.57-.88c1.06-1.7 1.44-2.68 1.47-4.15zm-5 0h2c0 2.06-.48 3.34-1.77 5.42l-.75 1.19c-1.06 1.7-1.44 2.68-1.48 4.15V13h-2c0-2.16.52-3.47 1.95-5.73l.57-.88c1.06-1.7 1.44-2.68 1.47-4.15zm-5 0h2c0 2.06-.48 3.34-1.77 5.42l-.75 1.19c-1.06 1.7-1.44 2.68-1.48 4.15V13h-2c0-2.16.51-3.47 1.95-5.73l.57-.88c1.06-1.7 1.44-2.68 1.47-4.15z"></path></svg>