<svg xmlns="http://www.w3.org/2000/svg" viewBox="0 0 32 32" aria-hidden="true" role="presentation" focusable="false" style="display: block; height: 24px; width: 24px; fill: currentcolor;"><path d="M16 1c4.26 0 7.6 4.44 7.97 10h.91a2 2 0 0 1 2 2v.22l-1.79 16A2 2 0 0 1 23.26 31l-.16.01H8.9a2 2 0 0 1-1.97-1.62l-.02-.16L6.44 25H5a2 2 0 0 1-2-1.85V14a5 5 0 0 1 4.78-5h.52c.94-4.62 4-8 7.7-8zm8.21 18H17v4a2 2 0 0 1-1.85 2h-6.7l.45 4h14.2zM15 21H5v2h10zm0-10H8a3 3 0 0 0-3 2.82V19h10zm9.88 2H17v4h7.44zM16 3c-2.52 0-4.8 2.44-5.65 6H15a2 2 0 0 1 2 1.85V11h4.96c-.34-4.55-2.95-8-5.96-8z"></path></svg>