<svg xmlns="http://www.w3.org/2000/svg" viewBox="0 0 32 32" aria-hidden="true" role="presentation" focusable="false" style="display: block; height: 24px; width: 24px; fill: currentcolor;"><path d="M16 1c2.46 0 4.75.99 6.42 2.7l.21.22.08.08H26a2 2 0 0 1 1.98 1.7l.01.15L28 6v2h2v2h-2v14h2v2h-2v2a2 2 0 0 1-1.85 2H6a2 2 0 0 1-2-1.85V26H2v-2h2V10H2V8h2V6a2 2 0 0 1 1.85-2H9.3l.06-.08a8.98 8.98 0 0 1 6.02-2.9l.31-.02H16zM6 28h3V6H6v22zm9-24.93a6.97 6.97 0 0 0-4 2.03V28h4V3.07zm2 0V28h4V5.1a6.97 6.97 0 0 0-4-2.03zM26 6h-3v22h3V6z"></path></svg>