<svg xmlns="http://www.w3.org/2000/svg" viewBox="0 0 32 32" aria-hidden="true" role="presentation" focusable="false" style="display: block; height: 24px; width: 24px; fill: currentcolor;"><path d="M23 2a6 6 0 0 1 6 5.78V11a5 5 0 0 1-2.7 4.44l-.2.1-.1.04V28a2 2 0 0 1-1.7 1.98l-.15.01L24 30h-2a2 2 0 0 1-2-1.85V15.58l-.09-.04a5 5 0 0 1-2.89-4.08l-.01-.23L17 11V8a6 6 0 0 1 6-6zm-8 9c0 2.2-.9 3.76-2.62 4.57l-.21.1-.17.06V28a2 2 0 0 1-1.7 1.98l-.15.01L10 30H8a2 2 0 0 1-2-1.85V15.73l-.17-.06c-1.71-.73-2.67-2.13-2.81-4.14L3 11.26V2h2v5h3V2h2v5h3V2h2v9zm8-7a4 4 0 0 0-4 3.8V11a3 3 0 0 0 2.08 2.86l.17.05.75.19V28h2V14.1l.75-.2A3 3 0 0 0 27 11.18V8a4 4 0 0 0-4-4zM13 9H5v2c0 1.6.57 2.48 1.87 2.92l.18.06.2.05.75.19V28h2V14.22l.76-.19c1.5-.37 2.18-1.21 2.24-2.82V9z"></path></svg>