<svg xmlns="http://www.w3.org/2000/svg" viewBox="0 0 32 32" aria-hidden="true" role="presentation" focusable="false" style="display: block; height: 24px; width: 24px; fill: currentcolor;"><path d="M11 6v2H9.62l2 4h10.24L20.3 8H17V6h4a1 1 0 0 1 .88.53l.05.11 3.62 9.38a5 5 0 1 1-1.92.58l-.53-1.36-7.44 6.51a1 1 0 0 1-.54.24L15 22h-4.1A5 5 0 0 1 1 21a5 5 0 0 1 6.3-4.83l1.8-3.62a1 1 0 0 1 .36-.4L7.38 8H5V6zM6 18a3 3 0 1 0 0 6 3 3 0 0 0 0-6zm20 0a3 3 0 1 0 0 6 3 3 0 0 0 0-6zm-15.5-3.76-1.41 2.83A5 5 0 0 1 10.9 20h2.48zM21.48 14h-8.86l2.7 5.4z"></path></svg>