<svg width="1034" height="331" viewBox="0 0 1034 331" fill="none" xmlns="http://www.w3.org/2000/svg">
<g clip-path="url(#clip0_276_1287)">
<path d="M297.908 234.365C296.454 230.208 294.754 226.186 293.137 222.461C290.644 216.764 288.105 211.088 285.519 205.434L285.317 204.992C262.472 154.667 238.55 104.856 213.569 55.5938L212.501 53.4886C209.903 48.3214 207.261 43.178 204.573 38.0591C201.348 31.5516 197.435 25.4217 192.905 19.778C187.802 13.5822 181.428 8.601 174.23 5.18521C167.028 1.76802 159.178 -0.00222471 151.232 -0.00115919C143.287 -9.36643e-05 135.437 1.77226 128.236 5.19138C121.039 8.60875 114.666 13.5914 109.565 19.7883C105.041 25.4332 101.132 31.5614 97.9074 38.0652C95.1952 43.2315 92.5281 48.4221 89.9066 53.6366L88.9171 55.5897C63.9362 104.854 40.0137 154.667 17.1667 204.994L16.8395 205.714C14.2981 211.275 11.8014 216.857 9.34968 222.459C7.73418 226.182 6.03588 230.201 4.57992 234.369C0.409126 245.719 -0.920566 257.948 0.710793 269.952C2.44335 282.088 7.2636 293.55 14.6929 303.202C22.1277 312.862 31.9112 320.379 43.0753 325.007C51.5122 328.482 60.5309 330.258 69.6321 330.238C72.4915 330.238 75.3489 330.067 78.1902 329.73C89.6998 328.237 100.802 324.423 110.848 318.513C124.02 310.978 137.031 299.936 151.243 284.157C165.455 299.936 178.464 310.978 191.639 318.511C201.684 324.423 212.786 328.237 224.296 329.73C227.137 330.067 229.994 330.237 232.854 330.238C241.955 330.258 250.974 328.482 259.409 325.007C270.574 320.379 280.358 312.862 287.793 303.202C295.223 293.55 300.043 282.088 301.775 269.952C303.405 257.947 302.076 245.717 297.908 234.365ZM151.243 251.566C133.648 228.861 122.36 207.776 118.398 190.101C116.775 183.478 116.391 176.604 117.267 169.836C117.96 164.874 119.75 160.137 122.503 155.981C125.893 151.507 130.247 147.884 135.229 145.394C140.214 142.903 145.693 141.608 151.246 141.609C156.798 141.61 162.277 142.906 167.261 145.398C172.242 147.889 176.596 151.511 179.985 155.986C182.737 160.142 184.528 164.88 185.221 169.842C186.096 176.612 185.711 183.489 184.086 190.113C180.12 207.788 168.834 228.867 151.243 251.566ZM281.226 266.963C280.014 275.447 276.644 283.461 271.45 290.209C266.252 296.964 259.411 302.219 251.604 305.456C243.707 308.677 235.139 309.818 226.693 308.774C217.915 307.623 209.456 304.681 201.82 300.125C190.094 293.418 178.224 283.122 164.866 268.018C186.13 241.326 199.409 216.723 204.324 194.807C206.537 185.593 207.016 176.037 205.738 166.641C204.578 158.545 201.627 150.823 197.107 144.057C191.808 136.754 184.899 130.82 176.936 126.732C168.968 122.642 160.169 120.511 151.245 120.511C142.322 120.511 133.522 122.642 125.555 126.732C117.591 130.818 110.681 136.751 105.381 144.053C100.862 150.816 97.9111 158.535 96.7503 166.629C95.4712 176.021 95.948 185.575 98.1557 194.787C103.069 216.709 116.348 241.32 137.618 268.02C124.262 283.122 112.392 293.418 100.666 300.127C93.0305 304.683 84.5709 307.624 75.7932 308.774C67.3469 309.818 58.7783 308.677 50.8801 305.456C43.0747 302.22 36.2343 296.965 31.0357 290.211C25.8422 283.462 22.4728 275.448 21.262 266.963C20.0985 258.341 21.0889 249.558 24.1416 241.429C25.3007 238.106 26.6598 234.85 28.3419 230.977C30.7479 225.48 33.1974 220.004 35.6904 214.548L36.0175 213.824C58.7394 163.778 82.5306 114.242 107.374 65.2525L108.368 63.2891C110.912 58.2665 113.541 53.0712 116.195 48.0528C118.734 42.8787 121.806 37.9945 125.361 33.4826C128.516 29.6097 132.47 26.4924 136.943 24.3526C141.416 22.2129 146.297 21.1033 151.239 21.1029C156.181 21.1025 161.063 22.2113 165.536 24.3504C170.009 26.4894 173.964 29.6061 177.119 33.4785C180.676 37.9867 183.75 42.8691 186.287 48.0425C188.915 53.0178 191.522 58.1658 194.044 63.1431L195.114 65.2545C219.958 114.244 243.749 163.781 266.469 213.828L266.671 214.272C269.154 219.747 271.725 225.405 274.144 230.979C275.828 234.856 277.189 238.117 278.347 241.427C281.398 249.557 282.388 258.338 281.226 266.961M422.568 248.908C414.471 248.908 407.019 247.257 400.214 243.951C393.409 240.645 387.579 236.016 382.395 230.068C377.211 224.118 373.324 217.177 370.406 209.573C367.49 201.639 366.193 193.043 366.193 183.79C366.193 174.534 367.815 165.607 370.731 157.673C373.647 149.742 377.859 142.799 383.043 136.518C388.227 130.568 394.382 125.61 401.51 122.304C408.639 118.998 416.09 117.345 424.515 117.345C432.613 117.345 439.741 118.998 446.223 122.635C452.703 125.941 457.887 130.899 462.098 137.178L463.071 120.982H492.877V245.604H463.071L462.098 227.424C457.887 234.034 452.378 239.324 445.25 243.289C438.77 246.928 430.993 248.91 422.57 248.91M430.349 219.161C436.181 219.161 441.365 217.508 446.225 214.533C450.761 211.228 454.323 206.931 457.241 201.643C459.832 196.353 461.128 190.072 461.128 183.13C461.128 176.187 459.832 169.906 457.241 164.618C454.648 159.328 450.759 155.032 446.225 151.728C441.688 148.42 436.181 147.098 430.349 147.098C424.517 147.098 419.333 148.751 414.473 151.726C409.937 155.032 406.373 159.328 403.457 164.616C400.864 169.906 399.568 176.187 399.568 183.13C399.568 190.072 400.864 196.353 403.457 201.641C406.048 206.931 409.937 211.228 414.473 214.531C419.333 217.508 424.517 219.161 430.349 219.161ZM543.749 87.265C543.749 90.9019 543.101 94.2078 541.479 96.8517C539.801 99.609 537.459 101.885 534.676 103.463C531.76 105.116 528.521 105.776 525.282 105.776C522.041 105.776 518.8 105.116 515.884 103.463C513.1 101.885 510.759 99.609 509.08 96.8517C507.461 93.8768 506.813 90.9019 506.813 87.265C506.813 83.6302 507.459 80.3243 509.08 77.6783C510.7 74.7034 512.968 72.7216 515.886 71.0686C518.8 69.4157 522.041 68.7537 525.282 68.7537C528.521 68.7537 531.76 69.4157 534.676 71.0686C537.46 72.6465 539.802 74.9215 541.481 77.6783C542.776 80.3243 543.749 83.2992 543.749 87.265ZM509.08 245.275V120.651H541.479V245.273L509.08 245.275ZM627.989 153.377V153.71C626.37 153.048 624.425 152.717 622.804 152.388C620.861 152.057 619.239 152.057 617.297 152.057C608.224 152.057 601.42 154.701 596.885 160.321C592.024 165.94 589.756 173.874 589.756 184.121V245.275H557.358V120.651H587.164L588.137 139.493C591.376 132.881 595.265 127.922 600.772 124.288C605.956 120.649 612.111 118.998 619.239 118.998C621.509 118.998 623.777 119.327 625.722 119.658C626.691 119.989 627.339 119.989 627.989 120.32V153.377ZM640.948 245.275V69.4136H673.348V136.518C677.884 130.57 683.068 125.941 689.548 122.306C696.03 119 703.159 117.016 711.256 117.016C719.354 117.016 726.807 118.669 733.611 121.975C740.416 125.281 746.248 129.908 751.432 135.858C756.617 141.808 760.505 148.751 763.421 156.356C766.337 164.287 767.631 172.881 767.631 182.137C767.631 191.394 766.012 200.319 763.098 208.253C760.18 216.186 755.969 223.127 750.783 229.408C745.6 235.36 739.445 240.317 732.316 243.622C725.188 246.928 717.736 248.581 709.314 248.581C701.212 248.581 694.085 246.928 687.605 243.291C681.123 239.986 675.939 235.027 671.729 228.748L670.756 244.944L640.948 245.275ZM703.48 219.161C709.314 219.161 714.497 217.508 719.356 214.533C723.891 211.228 727.456 206.931 730.372 201.643C732.964 196.353 734.261 190.072 734.261 183.13C734.261 176.187 732.964 169.906 730.372 164.618C727.456 159.328 723.891 155.032 719.356 151.728C714.82 148.42 709.314 147.098 703.48 147.098C697.648 147.098 692.464 148.751 687.605 151.726C683.068 155.032 679.504 159.328 676.588 164.616C673.997 169.906 672.7 176.187 672.7 183.13C672.7 190.072 673.997 196.353 676.588 201.641C679.18 206.931 683.07 211.228 687.605 214.531C692.464 217.508 697.648 219.161 703.48 219.161ZM779.945 245.275V120.651H809.751L810.725 136.849C814.289 130.897 819.147 126.27 825.304 122.635C831.459 118.998 838.588 117.345 846.69 117.345C855.761 117.345 863.535 119.658 870.015 123.957C876.821 128.253 882.004 134.534 885.569 142.468C889.133 150.402 891.075 159.986 891.075 170.897V245.604H858.677V175.194C858.677 166.6 856.732 159.657 852.845 154.696C848.957 149.742 843.772 147.096 836.968 147.096C832.108 147.096 827.895 148.087 824.008 150.402C820.444 152.715 817.528 155.689 815.26 159.988C812.992 163.954 812.021 168.911 812.021 173.872V245.273L779.945 245.275ZM907.275 245.275V69.4136H939.676V136.518C944.211 130.57 949.395 125.941 955.875 122.306C962.357 119 969.486 117.016 977.583 117.016C985.685 117.016 993.137 118.669 999.94 121.975C1006.75 125.281 1012.58 129.908 1017.76 135.858C1022.95 141.808 1026.83 148.751 1029.75 156.356C1032.67 164.287 1033.96 172.881 1033.96 182.137C1033.96 191.394 1032.34 200.319 1029.42 208.253C1026.51 216.186 1022.3 223.127 1017.11 229.408C1011.93 235.36 1005.77 240.317 998.644 243.622C991.515 246.928 984.064 248.581 975.641 248.581C967.541 248.581 960.413 246.928 953.933 243.291C947.45 239.986 942.269 235.027 938.056 228.748L937.085 244.944L907.275 245.275ZM970.132 219.161C975.964 219.161 981.148 217.508 986.008 214.533C990.544 211.228 994.106 206.931 997.024 201.643C999.617 196.353 1000.91 190.072 1000.91 183.13C1000.91 176.187 999.617 169.906 997.024 164.618C994.433 159.328 990.544 155.032 986.008 151.728C981.471 148.42 975.964 147.098 970.132 147.098C964.3 147.098 959.116 148.751 954.256 151.726C949.72 155.032 946.158 159.328 943.24 164.616C940.324 169.906 939.351 176.187 939.351 183.13C939.351 190.072 940.649 196.353 943.24 201.641C945.833 206.931 949.722 211.228 954.256 214.531C959.116 217.508 963.977 219.161 970.132 219.161Z" fill="#F5385C"/>
</g>
<defs>
<clipPath id="clip0_276_1287">
<rect width="1034" height="331" fill="white"/>
</clipPath>
</defs>
</svg>
